<?xml version="1.0" encoding="utf-8" ?>
<!DOCTYPE svg PUBLIC "-//W3C//DTD SVG 1.1//EN" "http://www.w3.org/Graphics/SVG/1.1/DTD/svg11.dtd">
<svg height="724" version="1.1" width="4478" xmlns="http://www.w3.org/2000/svg">
<ellipse cx="22" cy="38" fill="#000000" rx="8.0" ry="8.0" stroke="#000000" stroke-width="1"/>
<rect fill="#00ff" height="34" rx="36" ry="36" stroke="#00ff" stroke-width="1" width="224" x="687" y="63"/>
<rect fill="#ffffff" height="36" rx="36" ry="36" stroke="#000000" stroke-width="1" width="226" x="686" y="62"/>
<rect fill="#ffffff" height="34" rx="36" ry="36" stroke="#ffffff" stroke-width="1" width="224" x="687" y="63"/>
<text font-family="Dialog" font-size="12" x="698" y="82">
Create Zookeper and Zoo Announcer</text>
<rect fill="#00ff" height="34" rx="36" ry="36" stroke="#00ff" stroke-width="1" width="333" x="991" y="47"/>
<rect fill="#ffffff" height="36" rx="36" ry="36" stroke="#000000" stroke-width="1" width="335" x="990" y="46"/>
<rect fill="#ffffff" height="34" rx="36" ry="36" stroke="#ffffff" stroke-width="1" width="333" x="991" y="47"/>
<text font-family="Dialog" font-size="12" x="1002" y="66">
Register the Announcer as an Observer of the Zookeeper</text>
<polyline fill="none" points="910,63 991,63" stroke="#000000" stroke-width="1"/>
<line fill="#000000" stroke="#000000" stroke-width="1" x1="979" x2="991" y1="70" y2="63"/>
<line fill="#000000" stroke="#000000" stroke-width="1" x1="979" x2="991" y1="56" y2="63"/>
<rect fill="#00ff" height="34" rx="36" ry="36" stroke="#00ff" stroke-width="1" width="121" x="967" y="295"/>
<rect fill="#ffffff" height="36" rx="36" ry="36" stroke="#000000" stroke-width="1" width="123" x="966" y="294"/>
<rect fill="#ffffff" height="34" rx="36" ry="36" stroke="#ffffff" stroke-width="1" width="121" x="967" y="295"/>
<text font-family="Dialog" font-size="12" x="981" y="314">
Wake the Animal</text>
<rect fill="#00ff" height="44" rx="46" ry="46" stroke="#00ff" stroke-width="1" width="211" x="151" y="15"/>
<rect fill="#ffffff" height="46" rx="46" ry="46" stroke="#000000" stroke-width="1" width="213" x="150" y="14"/>
<rect fill="#ffffff" height="44" rx="46" ry="46" stroke="#ffffff" stroke-width="1" width="211" x="151" y="15"/>
<text font-family="Dialog" font-size="12" x="162" y="34">
Determine what kind of Animal it is</text>
<rect fill="#00ff" height="34" rx="36" ry="36" stroke="#00ff" stroke-width="1" width="198" x="167" y="183"/>
<rect fill="#ffffff" height="36" rx="36" ry="36" stroke="#000000" stroke-width="1" width="200" x="166" y="182"/>
<rect fill="#ffffff" height="34" rx="36" ry="36" stroke="#ffffff" stroke-width="1" width="198" x="167" y="183"/>
<text font-family="Dialog" font-size="12" x="178" y="202">
Determine what the Animal Eats</text>
<polyline fill="none" points="246,58 246,183" stroke="#000000" stroke-width="1"/>
<line fill="#000000" stroke="#000000" stroke-width="1" x1="239" x2="246" y1="171" y2="183"/>
<line fill="#000000" stroke="#000000" stroke-width="1" x1="253" x2="246" y1="171" y2="183"/>
<rect fill="#00ff" height="34" rx="36" ry="36" stroke="#00ff" stroke-width="1" width="206" x="167" y="319"/>
<rect fill="#ffffff" height="36" rx="36" ry="36" stroke="#000000" stroke-width="1" width="208" x="166" y="318"/>
<rect fill="#ffffff" height="34" rx="36" ry="36" stroke="#ffffff" stroke-width="1" width="206" x="167" y="319"/>
<text font-family="Dialog" font-size="12" x="178" y="338">
Determine where the Animal lives</text>
<polyline fill="none" points="262,216 262,319" stroke="#000000" stroke-width="1"/>
<line fill="#000000" stroke="#000000" stroke-width="1" x1="255" x2="262" y1="307" y2="319"/>
<line fill="#000000" stroke="#000000" stroke-width="1" x1="269" x2="262" y1="307" y2="319"/>
<rect fill="#00ff" height="34" rx="36" ry="36" stroke="#00ff" stroke-width="1" width="161" x="447" y="271"/>
<rect fill="#ffffff" height="36" rx="36" ry="36" stroke="#000000" stroke-width="1" width="163" x="446" y="270"/>
<rect fill="#ffffff" height="34" rx="36" ry="36" stroke="#ffffff" stroke-width="1" width="161" x="447" y="271"/>
<text font-family="Dialog" font-size="12" x="458" y="290">
Add the Animal to the Zoo</text>
<polyline fill="none" points="372,319 447,304" stroke="#000000" stroke-width="1"/>
<line fill="#000000" stroke="#000000" stroke-width="1" x1="436" x2="447" y1="313" y2="304"/>
<line fill="#000000" stroke="#000000" stroke-width="1" x1="433" x2="447" y1="299" y2="304"/>
<polygon fill="#ffffff" points="518,110 534,126 518,142 502,126" stroke="#ffffff" stroke-width="1"/>
<polygon fill="none" points="518,110 534,126 518,142 502,126" stroke="#000000" stroke-width="1"/>
<polyline fill="none" points="518,271 518,142" stroke="#000000" stroke-width="1"/>
<line fill="#000000" stroke="#000000" stroke-width="1" x1="525" x2="518" y1="154" y2="142"/>
<line fill="#000000" stroke="#000000" stroke-width="1" x1="511" x2="518" y1="154" y2="142"/>
<polyline fill="none" points="502,126 361,58" stroke="#000000" stroke-width="1"/>
<line fill="#000000" stroke="#000000" stroke-width="1" x1="374" x2="361" y1="56" y2="58"/>
<line fill="#000000" stroke="#000000" stroke-width="1" x1="368" x2="361" y1="69" y2="58"/>
<text font-family="Dialog" font-size="12" x="369" y="56">
 [not the last animal in the zoo]</text>
<polyline fill="none" points="30,38 151,38" stroke="#000000" stroke-width="1"/>
<line fill="#000000" stroke="#000000" stroke-width="1" x1="139" x2="151" y1="45" y2="38"/>
<line fill="#000000" stroke="#000000" stroke-width="1" x1="139" x2="151" y1="31" y2="38"/>
<polyline fill="none" points="534,126 687,96" stroke="#000000" stroke-width="1"/>
<line fill="#000000" stroke="#000000" stroke-width="1" x1="676" x2="687" y1="105" y2="96"/>
<line fill="#000000" stroke="#000000" stroke-width="1" x1="673" x2="687" y1="91" y2="96"/>
<text font-family="Dialog" font-size="12" x="534" y="92">
 [the last animal in the zoo]</text>
<polygon fill="#ffffff" points="1150,430 1166,446 1150,462 1134,446" stroke="#ffffff" stroke-width="1"/>
<polygon fill="none" points="1150,430 1166,446 1150,462 1134,446" stroke="#000000" stroke-width="1"/>
<polyline fill="none" points="1087,328 1150,430" stroke="#000000" stroke-width="1"/>
<line fill="#000000" stroke="#000000" stroke-width="1" x1="1137" x2="1150" y1="423" y2="430"/>
<line fill="#000000" stroke="#000000" stroke-width="1" x1="1149" x2="1150" y1="416" y2="430"/>
<polyline fill="none" points="1134,446 918,454 894,366 967,328" stroke="#000000" stroke-width="1"/>
<line fill="#000000" stroke="#000000" stroke-width="1" x1="959" x2="967" y1="339" y2="328"/>
<line fill="#000000" stroke="#000000" stroke-width="1" x1="953" x2="967" y1="327" y2="328"/>
<text font-family="Dialog" font-size="12" x="850" y="499">
 [not the last animal]</text>
<rect fill="#00ff" height="34" rx="36" ry="36" stroke="#00ff" stroke-width="1" width="127" x="1711" y="255"/>
<rect fill="#ffffff" height="36" rx="36" ry="36" stroke="#000000" stroke-width="1" width="129" x="1710" y="254"/>
<rect fill="#ffffff" height="34" rx="36" ry="36" stroke="#ffffff" stroke-width="1" width="127" x="1711" y="255"/>
<text font-family="Dialog" font-size="12" x="1722" y="274">
Roll call the Animal</text>
<polyline fill="none" points="1166,446 1294,345" stroke="#000000" stroke-width="1"/>
<line fill="#000000" stroke="#000000" stroke-width="1" x1="1288" x2="1294" y1="357" y2="345"/>
<line fill="#000000" stroke="#000000" stroke-width="1" x1="1280" x2="1294" y1="346" y2="345"/>
<text font-family="Dialog" font-size="12" x="1162" y="372">
 [the last animal]</text>
<rect fill="#00ff" height="34" rx="36" ry="36" stroke="#00ff" stroke-width="1" width="135" x="1647" y="495"/>
<rect fill="#ffffff" height="36" rx="36" ry="36" stroke="#000000" stroke-width="1" width="137" x="1646" y="494"/>
<rect fill="#ffffff" height="34" rx="36" ry="36" stroke="#ffffff" stroke-width="1" width="135" x="1647" y="495"/>
<text font-family="Dialog" font-size="12" x="1658" y="514">
Animal makes noise</text>
<polyline fill="none" points="1711,288 1711,495" stroke="#000000" stroke-width="1"/>
<line fill="#000000" stroke="#000000" stroke-width="1" x1="1704" x2="1711" y1="483" y2="495"/>
<line fill="#000000" stroke="#000000" stroke-width="1" x1="1718" x2="1711" y1="483" y2="495"/>
<polygon fill="#ffffff" points="1838,366 1854,382 1838,398 1822,382" stroke="#ffffff" stroke-width="1"/>
<polygon fill="none" points="1838,366 1854,382 1838,398 1822,382" stroke="#000000" stroke-width="1"/>
<polyline fill="none" points="1781,495 1838,398" stroke="#000000" stroke-width="1"/>
<line fill="#000000" stroke="#000000" stroke-width="1" x1="1837" x2="1838" y1="411" y2="398"/>
<line fill="#000000" stroke="#000000" stroke-width="1" x1="1825" x2="1838" y1="404" y2="398"/>
<polyline fill="none" points="1838,366 1837,288" stroke="#000000" stroke-width="1"/>
<line fill="#000000" stroke="#000000" stroke-width="1" x1="1844" x2="1837" y1="299" y2="288"/>
<line fill="#000000" stroke="#000000" stroke-width="1" x1="1830" x2="1837" y1="300" y2="288"/>
<text font-family="Dialog" font-size="12" x="1733" y="332">
 [not the last animal]</text>
<rect fill="#00ff" height="34" rx="36" ry="36" stroke="#00ff" stroke-width="1" width="210" x="2383" y="463"/>
<rect fill="#ffffff" height="36" rx="36" ry="36" stroke="#000000" stroke-width="1" width="212" x="2382" y="462"/>
<rect fill="#ffffff" height="34" rx="36" ry="36" stroke="#ffffff" stroke-width="1" width="210" x="2383" y="463"/>
<text font-family="Dialog" font-size="12" x="2394" y="482">
Determine what to feed the Animal</text>
<polyline fill="none" points="1854,382 2022,369" stroke="#000000" stroke-width="1"/>
<line fill="#000000" stroke="#000000" stroke-width="1" x1="2010" x2="2022" y1="376" y2="369"/>
<line fill="#000000" stroke="#000000" stroke-width="1" x1="2009" x2="2022" y1="362" y2="369"/>
<text font-family="Dialog" font-size="12" x="1892" y="368">
 [the last animal]</text>
<rect fill="#00ff" height="34" rx="36" ry="36" stroke="#00ff" stroke-width="1" width="111" x="2431" y="343"/>
<rect fill="#ffffff" height="36" rx="36" ry="36" stroke="#000000" stroke-width="1" width="113" x="2430" y="342"/>
<rect fill="#ffffff" height="34" rx="36" ry="36" stroke="#ffffff" stroke-width="1" width="111" x="2431" y="343"/>
<text font-family="Dialog" font-size="12" x="2442" y="362">
Feed the Animal</text>
<polyline fill="none" points="2455,463 2455,376" stroke="#000000" stroke-width="1"/>
<line fill="#000000" stroke="#000000" stroke-width="1" x1="2462" x2="2455" y1="388" y2="376"/>
<line fill="#000000" stroke="#000000" stroke-width="1" x1="2448" x2="2455" y1="388" y2="376"/>
<polygon fill="#ffffff" points="2718,286 2734,302 2718,318 2702,302" stroke="#ffffff" stroke-width="1"/>
<polygon fill="none" points="2718,286 2734,302 2718,318 2702,302" stroke="#000000" stroke-width="1"/>
<polyline fill="none" points="2541,343 2702,302" stroke="#000000" stroke-width="1"/>
<line fill="#000000" stroke="#000000" stroke-width="1" x1="2692" x2="2702" y1="311" y2="302"/>
<line fill="#000000" stroke="#000000" stroke-width="1" x1="2688" x2="2702" y1="298" y2="302"/>
<polyline fill="none" points="2718,318 2592,463" stroke="#000000" stroke-width="1"/>
<line fill="#000000" stroke="#000000" stroke-width="1" x1="2594" x2="2592" y1="449" y2="463"/>
<line fill="#000000" stroke="#000000" stroke-width="1" x1="2605" x2="2592" y1="458" y2="463"/>
<text font-family="Dialog" font-size="12" x="2563" y="362">
 [not the last animal]</text>
<rect fill="#00ff" height="34" rx="36" ry="36" stroke="#00ff" stroke-width="1" width="229" x="3239" y="367"/>
<rect fill="#ffffff" height="36" rx="36" ry="36" stroke="#000000" stroke-width="1" width="231" x="3238" y="366"/>
<rect fill="#ffffff" height="34" rx="36" ry="36" stroke="#ffffff" stroke-width="1" width="229" x="3239" y="367"/>
<text font-family="Dialog" font-size="12" x="3250" y="386">
Determine how to exercise the Animal</text>
<polyline fill="none" points="2734,302 2838,366" stroke="#000000" stroke-width="1"/>
<line fill="#000000" stroke="#000000" stroke-width="1" x1="2824" x2="2838" y1="365" y2="366"/>
<line fill="#000000" stroke="#000000" stroke-width="1" x1="2831" x2="2838" y1="353" y2="366"/>
<text font-family="Dialog" font-size="12" x="2758" y="310">
 [the last animal]</text>
<rect fill="#00ff" height="34" rx="36" ry="36" stroke="#00ff" stroke-width="1" width="123" x="3567" y="559"/>
<rect fill="#ffffff" height="36" rx="36" ry="36" stroke="#000000" stroke-width="1" width="125" x="3566" y="558"/>
<rect fill="#ffffff" height="34" rx="36" ry="36" stroke="#ffffff" stroke-width="1" width="123" x="3567" y="559"/>
<text font-family="Dialog" font-size="12" x="3578" y="578">
The animal roams</text>
<polyline fill="none" points="3467,400 3567,559" stroke="#000000" stroke-width="1"/>
<line fill="#000000" stroke="#000000" stroke-width="1" x1="3554" x2="3567" y1="552" y2="559"/>
<line fill="#000000" stroke="#000000" stroke-width="1" x1="3566" x2="3567" y1="545" y2="559"/>
<polygon fill="#ffffff" points="3790,422 3806,438 3790,454 3774,438" stroke="#ffffff" stroke-width="1"/>
<polygon fill="none" points="3790,422 3806,438 3790,454 3774,438" stroke="#000000" stroke-width="1"/>
<polyline fill="none" points="3689,559 3790,454" stroke="#000000" stroke-width="1"/>
<line fill="#000000" stroke="#000000" stroke-width="1" x1="3786" x2="3790" y1="467" y2="454"/>
<line fill="#000000" stroke="#000000" stroke-width="1" x1="3776" x2="3790" y1="457" y2="454"/>
<polyline fill="none" points="3774,438 3467,400" stroke="#000000" stroke-width="1"/>
<line fill="#000000" stroke="#000000" stroke-width="1" x1="3479" x2="3467" y1="394" y2="400"/>
<line fill="#000000" stroke="#000000" stroke-width="1" x1="3478" x2="3467" y1="408" y2="400"/>
<text font-family="Dialog" font-size="12" x="3568" y="408">
 [not the last animal]</text>
<rect fill="#00ff" height="34" rx="36" ry="36" stroke="#00ff" stroke-width="1" width="149" x="4311" y="311"/>
<rect fill="#ffffff" height="36" rx="36" ry="36" stroke="#000000" stroke-width="1" width="151" x="4310" y="310"/>
<rect fill="#ffffff" height="34" rx="36" ry="36" stroke="#ffffff" stroke-width="1" width="149" x="4311" y="311"/>
<text font-family="Dialog" font-size="12" x="4322" y="330">
Put the Animal to Sleep</text>
<polyline fill="none" points="3806,438 3926,345" stroke="#333399" stroke-width="1"/>
<line fill="#333399" stroke="#333399" stroke-width="1" x1="3920" x2="3926" y1="357" y2="345"/>
<line fill="#333399" stroke="#333399" stroke-width="1" x1="3912" x2="3926" y1="346" y2="345"/>
<text font-family="Dialog" font-size="12" x="3798" y="369">
 [the last animal]</text>
<polygon fill="#ffffff" points="4430,454 4446,470 4430,486 4414,470" stroke="#ffffff" stroke-width="1"/>
<polygon fill="none" points="4430,454 4446,470 4430,486 4414,470" stroke="#000000" stroke-width="1"/>
<polyline fill="none" points="4430,344 4430,454" stroke="#000000" stroke-width="1"/>
<line fill="#000000" stroke="#000000" stroke-width="1" x1="4423" x2="4430" y1="442" y2="454"/>
<line fill="#000000" stroke="#000000" stroke-width="1" x1="4437" x2="4430" y1="442" y2="454"/>
<polyline fill="none" points="4414,470 4262,462 4311,344" stroke="#000000" stroke-width="1"/>
<line fill="#000000" stroke="#000000" stroke-width="1" x1="4312" x2="4311" y1="357" y2="344"/>
<line fill="#000000" stroke="#000000" stroke-width="1" x1="4299" x2="4311" y1="352" y2="344"/>
<text font-family="Dialog" font-size="12" x="4232" y="420">
 [not the last animal]</text>
<rect fill="#00ff" height="44" rx="46" ry="46" stroke="#00ff" stroke-width="1" width="294" x="1175" y="159"/>
<rect fill="#ffffff" height="46" rx="46" ry="46" stroke="#000000" stroke-width="1" width="296" x="1174" y="158"/>
<rect fill="#ffffff" height="44" rx="46" ry="46" stroke="#ffffff" stroke-width="1" width="294" x="1175" y="159"/>
<text font-family="Dialog" font-size="12" x="1189" y="178">
Announce that we are about to wake the animals</text>
<polyline fill="none" points="1323,80 1323,159" stroke="#333399" stroke-width="1"/>
<line fill="#333399" stroke="#333399" stroke-width="1" x1="1316" x2="1323" y1="147" y2="159"/>
<line fill="#333399" stroke="#333399" stroke-width="1" x1="1330" x2="1323" y1="147" y2="159"/>
<polyline fill="none" points="1175,202 1087,295" stroke="#333399" stroke-width="1"/>
<line fill="#333399" stroke="#333399" stroke-width="1" x1="1090" x2="1087" y1="281" y2="295"/>
<line fill="#333399" stroke="#333399" stroke-width="1" x1="1100" x2="1087" y1="291" y2="295"/>
<rect fill="#00ff" height="34" rx="36" ry="36" stroke="#00ff" stroke-width="1" width="359" x="1295" y="311"/>
<rect fill="#ffffff" height="36" rx="36" ry="36" stroke="#000000" stroke-width="1" width="361" x="1294" y="310"/>
<rect fill="#ffffff" height="34" rx="36" ry="36" stroke="#ffffff" stroke-width="1" width="359" x="1295" y="311"/>
<text font-family="Dialog" font-size="12" x="1306" y="330">
Inform the Announcer that we are about to roll call the animals</text>
<polyline fill="none" points="1653,311 1711,288" stroke="#333399" stroke-width="1"/>
<line fill="#333399" stroke="#333399" stroke-width="1" x1="1702" x2="1711" y1="298" y2="288"/>
<line fill="#333399" stroke="#333399" stroke-width="1" x1="1697" x2="1711" y1="285" y2="288"/>
<rect fill="#00ff" height="34" rx="36" ry="36" stroke="#00ff" stroke-width="1" width="294" x="2023" y="335"/>
<rect fill="#ffffff" height="36" rx="36" ry="36" stroke="#000000" stroke-width="1" width="296" x="2022" y="334"/>
<rect fill="#ffffff" height="34" rx="36" ry="36" stroke="#ffffff" stroke-width="1" width="294" x="2023" y="335"/>
<text font-family="Dialog" font-size="12" x="2040" y="354">
Announce that we are about to feed the animals</text>
<polyline fill="none" points="2316,368 2383,463" stroke="#333399" stroke-width="1"/>
<line fill="#333399" stroke="#333399" stroke-width="1" x1="2370" x2="2383" y1="457" y2="463"/>
<line fill="#333399" stroke="#333399" stroke-width="1" x1="2381" x2="2383" y1="449" y2="463"/>
<rect fill="#00ff" height="34" rx="36" ry="36" stroke="#00ff" stroke-width="1" width="304" x="2839" y="367"/>
<rect fill="#ffffff" height="36" rx="36" ry="36" stroke="#000000" stroke-width="1" width="306" x="2838" y="366"/>
<rect fill="#ffffff" height="34" rx="36" ry="36" stroke="#ffffff" stroke-width="1" width="304" x="2839" y="367"/>
<text font-family="Dialog" font-size="12" x="2850" y="386">
Announce that we are about to exercise the animals</text>
<polyline fill="none" points="3142,375 3239,375" stroke="#333399" stroke-width="1"/>
<line fill="#333399" stroke="#333399" stroke-width="1" x1="3227" x2="3239" y1="382" y2="375"/>
<line fill="#333399" stroke="#333399" stroke-width="1" x1="3227" x2="3239" y1="368" y2="375"/>
<rect fill="#00ff" height="34" rx="36" ry="36" stroke="#00ff" stroke-width="1" width="312" x="3927" y="311"/>
<rect fill="#ffffff" height="36" rx="36" ry="36" stroke="#000000" stroke-width="1" width="314" x="3926" y="310"/>
<rect fill="#ffffff" height="34" rx="36" ry="36" stroke="#ffffff" stroke-width="1" width="312" x="3927" y="311"/>
<text font-family="Dialog" font-size="12" x="3938" y="330">
Announce that we are about to put the animals to bed</text>
<polyline fill="none" points="4238,328 4311,328" stroke="#333399" stroke-width="1"/>
<line fill="#333399" stroke="#333399" stroke-width="1" x1="4299" x2="4311" y1="335" y2="328"/>
<line fill="#333399" stroke="#333399" stroke-width="1" x1="4299" x2="4311" y1="321" y2="328"/>
<ellipse cx="4426" cy="698" fill="#000000" rx="12.0" ry="12.0" stroke="#000000" stroke-width="1"/>
<ellipse cx="4426" cy="698" fill="#ffffff" rx="11.0" ry="11.0" stroke="#ffffff" stroke-width="1"/>
<ellipse cx="4425" cy="697" fill="#000000" rx="7.5" ry="7.5" stroke="#000000" stroke-width="1"/>
<polyline fill="none" points="4430,486 4426,686" stroke="#000000" stroke-width="1"/>
<line fill="#000000" stroke="#000000" stroke-width="1" x1="4419" x2="4426" y1="673" y2="686"/>
<line fill="#000000" stroke="#000000" stroke-width="1" x1="4433" x2="4426" y1="674" y2="686"/>
</svg>
