<?xml version="1.0" encoding="utf-8" ?>
<!DOCTYPE svg PUBLIC "-//W3C//DTD SVG 1.1//EN" "http://www.w3.org/Graphics/SVG/1.1/DTD/svg11.dtd">
<svg height="1002" version="1.1" width="2342" xmlns="http://www.w3.org/2000/svg">
<rect fill="#ffffff" height="262" stroke="#ffffff" stroke-width="1" width="149" x="766" y="14"/>
<rect fill="none" height="262" stroke="#000000" stroke-width="1" width="149" x="766" y="14"/>
<text font-family="Dialog" font-size="12" font-style="italic" x="821" y="28">
Animal</text>
<rect fill="#000000" height="1" stroke="#000000" stroke-width="1" width="149" x="766" y="38"/>
<text font-family="Dialog" font-size="12" x="770" y="53">
- name : String</text>
<text font-family="Dialog" font-size="12" x="770" y="70">
- type : String</text>
<text font-family="Dialog" font-size="12" x="770" y="87">
- isAsleep : Boolean</text>
<text font-family="Dialog" font-size="12" x="770" y="104">
+ roamer : RoamBehavior</text>
<text font-family="Dialog" font-size="12" x="770" y="121">
+ eater : EatBehavior</text>
<rect fill="#000000" height="1" stroke="#000000" stroke-width="1" width="149" x="766" y="131"/>
<text font-family="Dialog" font-size="12" x="770" y="146">
+ setRoamBehavior()</text>
<text font-family="Dialog" font-size="12" x="770" y="163">
+ setEatBehavior()</text>
<text font-family="Dialog" font-size="12" x="770" y="180">
+ roam()</text>
<text font-family="Dialog" font-size="12" x="770" y="197">
+ eat()</text>
<text font-family="Dialog" font-size="12" x="770" y="214">
+ wakeUp()</text>
<text font-family="Dialog" font-size="12" x="770" y="231">
+ goToSleep()</text>
<text font-family="Dialog" font-size="12" font-style="italic" x="770" y="248">
+ makeNoise()</text>
<text font-family="Dialog" font-size="12" x="770" y="265">
# makeNoise_internal()</text>
<rect fill="#ffffff" height="25" stroke="#ffffff" stroke-width="1" width="71" x="398" y="451"/>
<rect fill="none" height="25" stroke="#000000" stroke-width="1" width="71" x="398" y="451"/>
<text font-family="Dialog" font-size="12" font-style="italic" x="402" y="465">
Pachyderm</text>
<polyline fill="none" points="468,451 766,275" stroke="#000000" stroke-width="1"/>
<polygon fill="#ffffff" points="766,275 759,287 752,275" stroke="#ffffff" stroke-width="1"/>
<polygon fill="none" points="766,275 759,287 752,275" stroke="#000000" stroke-width="1"/>
<rect fill="#ffffff" height="50" stroke="#ffffff" stroke-width="1" width="95" x="1294" y="174"/>
<rect fill="none" height="50" stroke="#000000" stroke-width="1" width="95" x="1294" y="174"/>
<text font-family="Dialog" font-size="12" x="1298" y="188">
SavannahBeast</text>
<rect fill="#000000" height="1" stroke="#000000" stroke-width="1" width="95" x="1294" y="198"/>
<text font-family="Dialog" font-size="12" x="1298" y="213">
+ roam()</text>
<rect fill="#ffffff" height="88" stroke="#ffffff" stroke-width="1" width="192" x="1518" y="38"/>
<rect fill="none" height="88" stroke="#000000" stroke-width="1" width="192" x="1518" y="38"/>
<text font-family="Dialog" font-size="12" font-style="italic" x="1572" y="52">
RoamBehavior</text>
<rect fill="#000000" height="1" stroke="#000000" stroke-width="1" width="192" x="1518" y="62"/>
<rect fill="#000000" height="1" stroke="#000000" stroke-width="1" width="192" x="1518" y="83"/>
<text font-family="Dialog" font-size="12" font-style="italic" x="1522" y="98">
+ roam()</text>
<text font-family="Dialog" font-size="12" x="1522" y="115">
# takeBehaviorFromListRandom()</text>
<polyline fill="none" points="1388,174 1518,125" stroke="#000000" stroke-width="1"/>
<polygon fill="#ffffff" points="1518,125 1509,135 1504,122" stroke="#ffffff" stroke-width="1"/>
<polygon fill="none" points="1518,125 1509,135 1504,122" stroke="#000000" stroke-width="1"/>
<rect fill="#ffffff" height="67" stroke="#ffffff" stroke-width="1" width="162" x="166" y="22"/>
<rect fill="none" height="67" stroke="#000000" stroke-width="1" width="162" x="166" y="22"/>
<text font-family="Dialog" font-size="12" font-style="italic" x="213" y="36">
EatBehavior</text>
<rect fill="#000000" height="1" stroke="#000000" stroke-width="1" width="162" x="166" y="46"/>
<text font-family="Dialog" font-size="12" font-style="italic" x="170" y="61">
+ eat()</text>
<text font-family="Dialog" font-size="12" x="170" y="78">
# eatFoodFromListRandom()</text>
<rect fill="#ffffff" height="50" stroke="#ffffff" stroke-width="1" width="66" x="14" y="206"/>
<rect fill="none" height="50" stroke="#000000" stroke-width="1" width="66" x="14" y="206"/>
<text font-family="Dialog" font-size="12" x="20" y="220">
Carnivore</text>
<rect fill="#000000" height="1" stroke="#000000" stroke-width="1" width="66" x="14" y="230"/>
<text font-family="Dialog" font-size="12" x="18" y="245">
+ eat()</text>
<polyline fill="none" points="79,206 166,88" stroke="#000000" stroke-width="1"/>
<polygon fill="#ffffff" points="166,88 164,101 153,93" stroke="#ffffff" stroke-width="1"/>
<polygon fill="none" points="166,88 164,101 153,93" stroke="#000000" stroke-width="1"/>
<polyline fill="none" points="327,70 766,70" stroke="#000000" stroke-width="1"/>
<text font-family="Dialog" font-size="12" x="351" y="65">
1</text>
<text font-family="Dialog" font-size="12" x="330" y="85">
strategy</text>
<polyline fill="none" points="914,78 1518,78" stroke="#000000" stroke-width="1"/>
<text font-family="Dialog" font-size="12" x="1499" y="73">
1</text>
<text font-family="Dialog" font-size="12" x="1473" y="93">
strategy</text>
<rect fill="#ffffff" height="56" stroke="#ffffff" stroke-width="1" width="86" x="150" y="622"/>
<rect fill="none" height="56" stroke="#000000" stroke-width="1" width="86" x="150" y="622"/>
<text font-family="Dialog" font-size="12" x="168" y="636">
Elephant</text>
<rect fill="#000000" height="1" stroke="#000000" stroke-width="1" width="86" x="150" y="646"/>
<text font-family="Dialog" font-size="12" x="154" y="661">
+ makeNoise()</text>
<polyline fill="none" points="235,622 398,475" stroke="#000000" stroke-width="1"/>
<polygon fill="#ffffff" points="398,475 393,488 384,477" stroke="#ffffff" stroke-width="1"/>
<polygon fill="none" points="398,475 393,488 384,477" stroke="#000000" stroke-width="1"/>
<rect fill="#ffffff" height="50" stroke="#ffffff" stroke-width="1" width="86" x="342" y="646"/>
<rect fill="none" height="50" stroke="#000000" stroke-width="1" width="86" x="342" y="646"/>
<text font-family="Dialog" font-size="12" x="368" y="660">
Rhino</text>
<rect fill="#000000" height="1" stroke="#000000" stroke-width="1" width="86" x="342" y="670"/>
<text font-family="Dialog" font-size="12" x="346" y="685">
+ makeNoise()</text>
<polyline fill="none" points="398,646 398,475" stroke="#000000" stroke-width="1"/>
<polygon fill="#ffffff" points="398,475 405,487 391,487" stroke="#ffffff" stroke-width="1"/>
<polygon fill="none" points="398,475 405,487 391,487" stroke="#000000" stroke-width="1"/>
<rect fill="#ffffff" height="50" stroke="#ffffff" stroke-width="1" width="88" x="502" y="638"/>
<rect fill="none" height="50" stroke="#000000" stroke-width="1" width="88" x="502" y="638"/>
<text font-family="Dialog" font-size="12" x="529" y="652">
Hippo</text>
<rect fill="#000000" height="1" stroke="#000000" stroke-width="1" width="88" x="502" y="662"/>
<text font-family="Dialog" font-size="12" x="506" y="677">
+ makeNoise()</text>
<polyline fill="none" points="502,638 468,475" stroke="#000000" stroke-width="1"/>
<polygon fill="#ffffff" points="468,475 477,485 463,488" stroke="#ffffff" stroke-width="1"/>
<polygon fill="none" points="468,475 477,485 463,488" stroke="#000000" stroke-width="1"/>
<rect fill="#ffffff" height="25" stroke="#ffffff" stroke-width="1" width="66" x="814" y="486"/>
<rect fill="none" height="25" stroke="#000000" stroke-width="1" width="66" x="814" y="486"/>
<text font-family="Dialog" font-size="12" font-style="italic" x="830" y="500">
Feline</text>
<polyline fill="none" points="838,486 838,275" stroke="#000000" stroke-width="1"/>
<polygon fill="#ffffff" points="838,275 845,287 831,287" stroke="#ffffff" stroke-width="1"/>
<polygon fill="none" points="838,275 845,287 831,287" stroke="#000000" stroke-width="1"/>
<rect fill="#ffffff" height="50" stroke="#ffffff" stroke-width="1" width="88" x="670" y="654"/>
<rect fill="none" height="50" stroke="#000000" stroke-width="1" width="88" x="670" y="654"/>
<text font-family="Dialog" font-size="12" x="702" y="668">
Lion</text>
<rect fill="#000000" height="1" stroke="#000000" stroke-width="1" width="88" x="670" y="678"/>
<text font-family="Dialog" font-size="12" x="674" y="693">
+ makeNoise()</text>
<polyline fill="none" points="757,654 814,510" stroke="#000000" stroke-width="1"/>
<polygon fill="#ffffff" points="814,510 816,523 803,518" stroke="#ffffff" stroke-width="1"/>
<polygon fill="none" points="814,510 816,523 803,518" stroke="#000000" stroke-width="1"/>
<rect fill="#ffffff" height="50" stroke="#ffffff" stroke-width="1" width="86" x="822" y="654"/>
<rect fill="none" height="50" stroke="#000000" stroke-width="1" width="86" x="822" y="654"/>
<text font-family="Dialog" font-size="12" x="851" y="668">
Tiger</text>
<rect fill="#000000" height="1" stroke="#000000" stroke-width="1" width="86" x="822" y="678"/>
<text font-family="Dialog" font-size="12" x="826" y="693">
+ makeNoise()</text>
<polyline fill="none" points="854,654 854,510" stroke="#000000" stroke-width="1"/>
<polygon fill="#ffffff" points="854,510 861,522 847,522" stroke="#ffffff" stroke-width="1"/>
<polygon fill="none" points="854,510 861,522 847,522" stroke="#000000" stroke-width="1"/>
<rect fill="#ffffff" height="50" stroke="#ffffff" stroke-width="1" width="90" x="978" y="654"/>
<rect fill="none" height="50" stroke="#000000" stroke-width="1" width="90" x="978" y="654"/>
<text font-family="Dialog" font-size="12" x="995" y="668">
HouseCat</text>
<rect fill="#000000" height="1" stroke="#000000" stroke-width="1" width="90" x="978" y="678"/>
<text font-family="Dialog" font-size="12" x="982" y="693">
+ makeNoise()</text>
<polyline fill="none" points="978,654 879,510" stroke="#000000" stroke-width="1"/>
<polygon fill="#ffffff" points="879,510 891,515 880,523" stroke="#ffffff" stroke-width="1"/>
<polygon fill="none" points="879,510 891,515 880,523" stroke="#000000" stroke-width="1"/>
<rect fill="#ffffff" height="25" stroke="#ffffff" stroke-width="1" width="66" x="1238" y="510"/>
<rect fill="none" height="25" stroke="#000000" stroke-width="1" width="66" x="1238" y="510"/>
<text font-family="Dialog" font-size="12" font-style="italic" x="1251" y="524">
Canine</text>
<polyline fill="none" points="1238,510 914,275" stroke="#000000" stroke-width="1"/>
<polygon fill="#ffffff" points="914,275 927,276 919,287" stroke="#ffffff" stroke-width="1"/>
<polygon fill="none" points="914,275 927,276 919,287" stroke="#000000" stroke-width="1"/>
<rect fill="#ffffff" height="50" stroke="#ffffff" stroke-width="1" width="88" x="1174" y="670"/>
<rect fill="none" height="50" stroke="#000000" stroke-width="1" width="88" x="1174" y="670"/>
<text font-family="Dialog" font-size="12" x="1206" y="684">
Dog</text>
<rect fill="#000000" height="1" stroke="#000000" stroke-width="1" width="88" x="1174" y="694"/>
<text font-family="Dialog" font-size="12" x="1178" y="709">
+ makeNoise()</text>
<polyline fill="none" points="1238,670 1238,534" stroke="#000000" stroke-width="1"/>
<polygon fill="#ffffff" points="1238,534 1245,546 1231,546" stroke="#ffffff" stroke-width="1"/>
<polygon fill="none" points="1238,534 1245,546 1231,546" stroke="#000000" stroke-width="1"/>
<rect fill="#ffffff" height="50" stroke="#ffffff" stroke-width="1" width="88" x="1334" y="662"/>
<rect fill="none" height="50" stroke="#000000" stroke-width="1" width="88" x="1334" y="662"/>
<text font-family="Dialog" font-size="12" x="1366" y="676">
Wolf</text>
<rect fill="#000000" height="1" stroke="#000000" stroke-width="1" width="88" x="1334" y="686"/>
<text font-family="Dialog" font-size="12" x="1338" y="701">
+ makeNoise()</text>
<polyline fill="none" points="1334,662 1303,534" stroke="#000000" stroke-width="1"/>
<polygon fill="#ffffff" points="1303,534 1312,544 1299,547" stroke="#ffffff" stroke-width="1"/>
<polygon fill="none" points="1303,534 1312,544 1299,547" stroke="#000000" stroke-width="1"/>
<rect fill="#ffffff" height="50" stroke="#ffffff" stroke-width="1" width="66" x="142" y="238"/>
<rect fill="none" height="50" stroke="#000000" stroke-width="1" width="66" x="142" y="238"/>
<text font-family="Dialog" font-size="12" x="148" y="252">
Herbivore</text>
<rect fill="#000000" height="1" stroke="#000000" stroke-width="1" width="66" x="142" y="262"/>
<text font-family="Dialog" font-size="12" x="146" y="277">
+ eat()</text>
<polyline fill="none" points="207,238 207,88" stroke="#000000" stroke-width="1"/>
<polygon fill="#ffffff" points="207,88 214,100 200,100" stroke="#ffffff" stroke-width="1"/>
<polygon fill="none" points="207,88 214,100 200,100" stroke="#000000" stroke-width="1"/>
<rect fill="#ffffff" height="50" stroke="#ffffff" stroke-width="1" width="91" x="270" y="238"/>
<rect fill="none" height="50" stroke="#000000" stroke-width="1" width="91" x="270" y="238"/>
<text font-family="Dialog" font-size="12" x="275" y="252">
PickyCarnivore</text>
<rect fill="#000000" height="1" stroke="#000000" stroke-width="1" width="91" x="270" y="262"/>
<text font-family="Dialog" font-size="12" x="274" y="277">
+ eat()</text>
<polyline fill="none" points="270,238 270,88" stroke="#000000" stroke-width="1"/>
<polygon fill="#ffffff" points="270,88 277,100 263,100" stroke="#ffffff" stroke-width="1"/>
<polygon fill="none" points="270,88 277,100 263,100" stroke="#000000" stroke-width="1"/>
<rect fill="#ffffff" height="50" stroke="#ffffff" stroke-width="1" width="91" x="404" y="210"/>
<rect fill="none" height="50" stroke="#000000" stroke-width="1" width="91" x="404" y="210"/>
<text font-family="Dialog" font-size="12" x="409" y="224">
PickyHerbivore</text>
<rect fill="#000000" height="1" stroke="#000000" stroke-width="1" width="91" x="404" y="234"/>
<text font-family="Dialog" font-size="12" x="408" y="249">
+ eat()</text>
<polyline fill="none" points="404,210 327,88" stroke="#000000" stroke-width="1"/>
<polygon fill="#ffffff" points="327,88 339,94 327,101" stroke="#ffffff" stroke-width="1"/>
<polygon fill="none" points="327,88 339,94 327,101" stroke="#000000" stroke-width="1"/>
<rect fill="#ffffff" height="50" stroke="#ffffff" stroke-width="1" width="75" x="1430" y="238"/>
<rect fill="none" height="50" stroke="#000000" stroke-width="1" width="75" x="1430" y="238"/>
<text font-family="Dialog" font-size="12" x="1433" y="252">
HouseBeast</text>
<rect fill="#000000" height="1" stroke="#000000" stroke-width="1" width="75" x="1430" y="262"/>
<text font-family="Dialog" font-size="12" x="1434" y="277">
+ roam()</text>
<polyline fill="none" points="1504,238 1518,125" stroke="#000000" stroke-width="1"/>
<polygon fill="#ffffff" points="1518,125 1523,137 1509,136" stroke="#ffffff" stroke-width="1"/>
<polygon fill="none" points="1518,125 1523,137 1509,136" stroke="#000000" stroke-width="1"/>
<rect fill="#ffffff" height="50" stroke="#ffffff" stroke-width="1" width="95" x="1566" y="238"/>
<rect fill="none" height="50" stroke="#000000" stroke-width="1" width="95" x="1566" y="238"/>
<text font-family="Dialog" font-size="12" x="1570" y="252">
HouseBeastEvil</text>
<rect fill="#000000" height="1" stroke="#000000" stroke-width="1" width="95" x="1566" y="262"/>
<text font-family="Dialog" font-size="12" x="1570" y="277">
+ roam()</text>
<polyline fill="none" points="1660,238 1660,125" stroke="#000000" stroke-width="1"/>
<polygon fill="#ffffff" points="1660,125 1667,137 1653,137" stroke="#ffffff" stroke-width="1"/>
<polygon fill="none" points="1660,125 1667,137 1653,137" stroke="#000000" stroke-width="1"/>
<rect fill="#ffffff" height="50" stroke="#ffffff" stroke-width="1" width="110" x="1726" y="238"/>
<rect fill="none" height="50" stroke="#000000" stroke-width="1" width="110" x="1726" y="238"/>
<text font-family="Dialog" font-size="12" x="1729" y="252">
ForestJungleBeast</text>
<rect fill="#000000" height="1" stroke="#000000" stroke-width="1" width="110" x="1726" y="262"/>
<text font-family="Dialog" font-size="12" x="1730" y="277">
+ roam()</text>
<polyline fill="none" points="1726,238 1709,125" stroke="#000000" stroke-width="1"/>
<polygon fill="#ffffff" points="1709,125 1717,135 1703,137" stroke="#ffffff" stroke-width="1"/>
<polygon fill="none" points="1709,125 1717,135 1703,137" stroke="#000000" stroke-width="1"/>
<rect fill="#ffffff" height="50" stroke="#ffffff" stroke-width="1" width="85" x="1878" y="198"/>
<rect fill="none" height="50" stroke="#000000" stroke-width="1" width="85" x="1878" y="198"/>
<text font-family="Dialog" font-size="12" x="1882" y="212">
WetlandBeast</text>
<rect fill="#000000" height="1" stroke="#000000" stroke-width="1" width="85" x="1878" y="222"/>
<text font-family="Dialog" font-size="12" x="1882" y="237">
+ roam()</text>
<polyline fill="none" points="1878,198 1709,125" stroke="#000000" stroke-width="1"/>
<polygon fill="#ffffff" points="1709,125 1722,123 1717,136" stroke="#ffffff" stroke-width="1"/>
<polygon fill="none" points="1709,125 1722,123 1717,136" stroke="#000000" stroke-width="1"/>
<rect fill="#ffffff" height="109" stroke="#ffffff" stroke-width="1" width="163" x="1774" y="558"/>
<rect fill="none" height="109" stroke="#000000" stroke-width="1" width="163" x="1774" y="558"/>
<text font-family="Dialog" font-size="12" font-style="italic" x="1823" y="572">
Observable</text>
<rect fill="#000000" height="1" stroke="#000000" stroke-width="1" width="163" x="1774" y="582"/>
<text font-family="Dialog" font-size="12" x="1778" y="597">
- observers : List&lt;Observer&gt;</text>
<rect fill="#000000" height="1" stroke="#000000" stroke-width="1" width="163" x="1774" y="607"/>
<text font-family="Dialog" font-size="12" x="1778" y="622">
+ registerObserver()</text>
<text font-family="Dialog" font-size="12" x="1778" y="639">
+ removeObserver()</text>
<text font-family="Dialog" font-size="12" x="1778" y="656">
+ notifyObservers()</text>
<rect fill="#ffffff" height="48" stroke="#ffffff" stroke-width="1" width="104" x="2222" y="558"/>
<rect fill="none" height="48" stroke="#000000" stroke-width="1" width="104" x="2222" y="558"/>
<text font-family="Dialog" font-size="12" font-style="italic" x="2248" y="572">
Observer</text>
<rect fill="#000000" height="1" stroke="#000000" stroke-width="1" width="104" x="2222" y="582"/>
<text font-family="Dialog" font-size="12" x="2226" y="597">
+ update()</text>
<rect fill="#ffffff" height="118" stroke="#ffffff" stroke-width="1" width="117" x="1814" y="862"/>
<rect fill="none" height="118" stroke="#000000" stroke-width="1" width="117" x="1814" y="862"/>
<text font-family="Dialog" font-size="12" x="1843" y="876">
Zookeeper</text>
<rect fill="#000000" height="1" stroke="#000000" stroke-width="1" width="117" x="1814" y="886"/>
<text font-family="Dialog" font-size="12" x="1818" y="901">
+ wakeAnimals()</text>
<text font-family="Dialog" font-size="12" x="1818" y="918">
+ rollCallAnimals()</text>
<text font-family="Dialog" font-size="12" x="1818" y="935">
+ feedAnimals()</text>
<text font-family="Dialog" font-size="12" x="1818" y="952">
+ exerciseAnimals()</text>
<text font-family="Dialog" font-size="12" x="1818" y="969">
+ shutDownZoo()</text>
<polyline fill="none" points="1878,862 1878,666" stroke="#000000" stroke-width="1"/>
<polygon fill="#ffffff" points="1878,666 1885,678 1871,678" stroke="#ffffff" stroke-width="1"/>
<polygon fill="none" points="1878,666 1885,678 1871,678" stroke="#000000" stroke-width="1"/>
<rect fill="#ffffff" height="25" stroke="#ffffff" stroke-width="1" width="90" x="2238" y="926"/>
<rect fill="none" height="25" stroke="#000000" stroke-width="1" width="90" x="2238" y="926"/>
<text font-family="Dialog" font-size="12" x="2243" y="940">
ZooAnnouncer</text>
<polyline fill="none" points="2270,926 2270,605" stroke="#000000" stroke-width="1"/>
<polygon fill="#ffffff" points="2270,605 2277,617 2263,617" stroke="#ffffff" stroke-width="1"/>
<polygon fill="none" points="2270,605 2277,617 2263,617" stroke="#000000" stroke-width="1"/>
<polyline fill="none" points="1936,605 2222,605" stroke="#000000" stroke-width="1"/>
<line fill="#000000" stroke="#000000" stroke-width="1" x1="2210" x2="2222" y1="612" y2="605"/>
<line fill="#000000" stroke="#000000" stroke-width="1" x1="2210" x2="2222" y1="598" y2="605"/>
<text font-family="Dialog" font-size="12" x="2167" y="620">
* observers</text>
<polyline fill="none" points="2238,950 1930,950" stroke="#000000" stroke-width="1"/>
<line fill="#000000" stroke="#000000" stroke-width="1" x1="1942" x2="1930" y1="943" y2="950"/>
<line fill="#000000" stroke="#000000" stroke-width="1" x1="1942" x2="1930" y1="957" y2="950"/>
<text font-family="Dialog" font-size="12" x="1939" y="966">
subject</text>
</svg>
