<?xml version="1.0" encoding="utf-8" ?>
<!DOCTYPE svg PUBLIC "-//W3C//DTD SVG 1.1//EN" "http://www.w3.org/Graphics/SVG/1.1/DTD/svg11.dtd">
<svg height="1002" version="1.1" width="1190" xmlns="http://www.w3.org/2000/svg">
<text font-family="Dialog" font-size="12" x="18" y="307">
Zookeeper</text>
<ellipse cx="47" cy="255" fill="#000000" rx="8.0" ry="7.5" stroke="#000000" stroke-width="1"/>
<ellipse cx="47" cy="255" fill="#ffffff" rx="7.0" ry="6.5" stroke="#ffffff" stroke-width="1"/>
<line fill="#000000" stroke="#000000" stroke-width="1" x1="47" x2="47" y1="263" y2="278"/>
<line fill="#000000" stroke="#000000" stroke-width="1" x1="37" x2="57" y1="268" y2="268"/>
<line fill="#000000" stroke="#000000" stroke-width="1" x1="47" x2="42" y1="278" y2="293"/>
<line fill="#000000" stroke="#000000" stroke-width="1" x1="47" x2="52" y1="278" y2="293"/>
<ellipse cx="229" cy="35" fill="#000000" rx="55.0" ry="21.0" stroke="#000000" stroke-width="1"/>
<ellipse cx="229" cy="35" fill="#ffffff" rx="54.0" ry="20.0" stroke="#ffffff" stroke-width="1"/>
<text font-family="Dialog" font-size="12" x="193" y="36">
Wake Animal</text>
<polyline fill="none" points="52,248 212,55" stroke="#000000" stroke-width="1"/>
<line fill="#000000" stroke="#000000" stroke-width="1" x1="209" x2="212" y1="68" y2="55"/>
<line fill="#000000" stroke="#000000" stroke-width="1" x1="198" x2="212" y1="59" y2="55"/>
<ellipse cx="337" cy="212" fill="#000000" rx="59.0" ry="22.0" stroke="#000000" stroke-width="1"/>
<ellipse cx="337" cy="212" fill="#ffffff" rx="58.0" ry="21.0" stroke="#ffffff" stroke-width="1"/>
<text font-family="Dialog" font-size="12" x="293" y="213">
Roll Call Animal</text>
<ellipse cx="657" cy="196" fill="#000000" rx="99.0" ry="30.0" stroke="#000000" stroke-width="1"/>
<ellipse cx="657" cy="196" fill="#ffffff" rx="98.0" ry="29.0" stroke="#ffffff" stroke-width="1"/>
<text font-family="Dialog" font-size="12" x="571" y="197">
Sounds made by animals differ</text>
<line fill="#000000" stroke="#000000" stroke-width="1" x1="559" x2="554" y1="205" y2="205"/>
<line fill="#000000" stroke="#000000" stroke-width="1" x1="549" x2="544" y1="205" y2="205"/>
<line fill="#000000" stroke="#000000" stroke-width="1" x1="539" x2="534" y1="205" y2="205"/>
<line fill="#000000" stroke="#000000" stroke-width="1" x1="529" x2="524" y1="205" y2="205"/>
<line fill="#000000" stroke="#000000" stroke-width="1" x1="519" x2="514" y1="205" y2="205"/>
<line fill="#000000" stroke="#000000" stroke-width="1" x1="509" x2="504" y1="205" y2="205"/>
<line fill="#000000" stroke="#000000" stroke-width="1" x1="499" x2="494" y1="205" y2="205"/>
<line fill="#000000" stroke="#000000" stroke-width="1" x1="489" x2="484" y1="205" y2="205"/>
<line fill="#000000" stroke="#000000" stroke-width="1" x1="479" x2="474" y1="205" y2="205"/>
<line fill="#000000" stroke="#000000" stroke-width="1" x1="469" x2="464" y1="205" y2="205"/>
<line fill="#000000" stroke="#000000" stroke-width="1" x1="459" x2="454" y1="205" y2="205"/>
<line fill="#000000" stroke="#000000" stroke-width="1" x1="449" x2="444" y1="205" y2="205"/>
<line fill="#000000" stroke="#000000" stroke-width="1" x1="439" x2="434" y1="205" y2="205"/>
<line fill="#000000" stroke="#000000" stroke-width="1" x1="429" x2="424" y1="205" y2="205"/>
<line fill="#000000" stroke="#000000" stroke-width="1" x1="419" x2="414" y1="205" y2="205"/>
<line fill="#000000" stroke="#000000" stroke-width="1" x1="409" x2="404" y1="205" y2="205"/>
<line fill="#000000" stroke="#000000" stroke-width="1" x1="399" x2="395" y1="205" y2="205"/>
<line fill="#000000" stroke="#000000" stroke-width="1" x1="407" x2="395" y1="198" y2="205"/>
<line fill="#000000" stroke="#000000" stroke-width="1" x1="407" x2="395" y1="212" y2="205"/>
<text font-family="Dialog" font-size="12" x="445" y="181">
&lt;&lt;extend&gt;&gt;</text>
<polyline fill="none" points="56,255 282,220" stroke="#000000" stroke-width="1"/>
<line fill="#000000" stroke="#000000" stroke-width="1" x1="271" x2="282" y1="228" y2="220"/>
<line fill="#000000" stroke="#000000" stroke-width="1" x1="269" x2="282" y1="214" y2="220"/>
<ellipse cx="333" cy="363" fill="#000000" rx="55.0" ry="21.0" stroke="#000000" stroke-width="1"/>
<ellipse cx="333" cy="363" fill="#ffffff" rx="54.0" ry="20.0" stroke="#ffffff" stroke-width="1"/>
<text font-family="Dialog" font-size="12" x="298" y="364">
Feed Animal</text>
<polyline fill="none" points="52,317 282,354" stroke="#000000" stroke-width="1"/>
<line fill="#000000" stroke="#000000" stroke-width="1" x1="269" x2="282" y1="359" y2="354"/>
<line fill="#000000" stroke="#000000" stroke-width="1" x1="271" x2="282" y1="345" y2="354"/>
<ellipse cx="639" cy="316" fill="#000000" rx="57.0" ry="22.0" stroke="#000000" stroke-width="1"/>
<ellipse cx="639" cy="316" fill="#ffffff" rx="56.0" ry="21.0" stroke="#ffffff" stroke-width="1"/>
<text font-family="Dialog" font-size="12" x="597" y="317">
Feed Carnivore</text>
<ellipse cx="615" cy="492" fill="#000000" rx="57.0" ry="22.0" stroke="#000000" stroke-width="1"/>
<ellipse cx="615" cy="492" fill="#ffffff" rx="56.0" ry="21.0" stroke="#ffffff" stroke-width="1"/>
<text font-family="Dialog" font-size="12" x="573" y="493">
Feed Herbivore</text>
<line fill="#000000" stroke="#000000" stroke-width="1" x1="586" x2="582" y1="324" y2="324"/>
<line fill="#000000" stroke="#000000" stroke-width="1" x1="577" x2="572" y1="325" y2="326"/>
<line fill="#000000" stroke="#000000" stroke-width="1" x1="567" x2="562" y1="327" y2="327"/>
<line fill="#000000" stroke="#000000" stroke-width="1" x1="557" x2="552" y1="328" y2="329"/>
<line fill="#000000" stroke="#000000" stroke-width="1" x1="547" x2="542" y1="330" y2="330"/>
<line fill="#000000" stroke="#000000" stroke-width="1" x1="537" x2="532" y1="331" y2="332"/>
<line fill="#000000" stroke="#000000" stroke-width="1" x1="527" x2="522" y1="333" y2="333"/>
<line fill="#000000" stroke="#000000" stroke-width="1" x1="517" x2="512" y1="334" y2="335"/>
<line fill="#000000" stroke="#000000" stroke-width="1" x1="507" x2="502" y1="336" y2="336"/>
<line fill="#000000" stroke="#000000" stroke-width="1" x1="497" x2="492" y1="337" y2="338"/>
<line fill="#000000" stroke="#000000" stroke-width="1" x1="487" x2="483" y1="339" y2="339"/>
<line fill="#000000" stroke="#000000" stroke-width="1" x1="478" x2="473" y1="340" y2="341"/>
<line fill="#000000" stroke="#000000" stroke-width="1" x1="468" x2="463" y1="342" y2="342"/>
<line fill="#000000" stroke="#000000" stroke-width="1" x1="458" x2="453" y1="343" y2="344"/>
<line fill="#000000" stroke="#000000" stroke-width="1" x1="448" x2="443" y1="345" y2="346"/>
<line fill="#000000" stroke="#000000" stroke-width="1" x1="438" x2="433" y1="346" y2="347"/>
<line fill="#000000" stroke="#000000" stroke-width="1" x1="428" x2="423" y1="348" y2="349"/>
<line fill="#000000" stroke="#000000" stroke-width="1" x1="418" x2="413" y1="349" y2="350"/>
<line fill="#000000" stroke="#000000" stroke-width="1" x1="408" x2="403" y1="351" y2="352"/>
<line fill="#000000" stroke="#000000" stroke-width="1" x1="398" x2="393" y1="352" y2="353"/>
<line fill="#000000" stroke="#000000" stroke-width="1" x1="388" x2="384" y1="354" y2="355"/>
<line fill="#000000" stroke="#000000" stroke-width="1" x1="394" x2="384" y1="346" y2="355"/>
<line fill="#000000" stroke="#000000" stroke-width="1" x1="396" x2="384" y1="360" y2="355"/>
<text font-family="Dialog" font-size="12" x="450" y="312">
&lt;&lt;extend&gt;&gt;</text>
<line fill="#000000" stroke="#000000" stroke-width="1" x1="578" x2="574" y1="475" y2="473"/>
<line fill="#000000" stroke="#000000" stroke-width="1" x1="569" x2="565" y1="471" y2="469"/>
<line fill="#000000" stroke="#000000" stroke-width="1" x1="560" x2="556" y1="467" y2="465"/>
<line fill="#000000" stroke="#000000" stroke-width="1" x1="551" x2="547" y1="463" y2="461"/>
<line fill="#000000" stroke="#000000" stroke-width="1" x1="542" x2="537" y1="459" y2="457"/>
<line fill="#000000" stroke="#000000" stroke-width="1" x1="533" x2="528" y1="455" y2="453"/>
<line fill="#000000" stroke="#000000" stroke-width="1" x1="524" x2="519" y1="450" y2="448"/>
<line fill="#000000" stroke="#000000" stroke-width="1" x1="515" x2="510" y1="446" y2="444"/>
<line fill="#000000" stroke="#000000" stroke-width="1" x1="505" x2="501" y1="442" y2="440"/>
<line fill="#000000" stroke="#000000" stroke-width="1" x1="496" x2="492" y1="438" y2="436"/>
<line fill="#000000" stroke="#000000" stroke-width="1" x1="487" x2="483" y1="434" y2="432"/>
<line fill="#000000" stroke="#000000" stroke-width="1" x1="478" x2="473" y1="430" y2="427"/>
<line fill="#000000" stroke="#000000" stroke-width="1" x1="469" x2="464" y1="425" y2="423"/>
<line fill="#000000" stroke="#000000" stroke-width="1" x1="460" x2="455" y1="421" y2="419"/>
<line fill="#000000" stroke="#000000" stroke-width="1" x1="451" x2="446" y1="417" y2="415"/>
<line fill="#000000" stroke="#000000" stroke-width="1" x1="442" x2="437" y1="413" y2="411"/>
<line fill="#000000" stroke="#000000" stroke-width="1" x1="432" x2="428" y1="409" y2="407"/>
<line fill="#000000" stroke="#000000" stroke-width="1" x1="423" x2="419" y1="405" y2="402"/>
<line fill="#000000" stroke="#000000" stroke-width="1" x1="414" x2="410" y1="400" y2="398"/>
<line fill="#000000" stroke="#000000" stroke-width="1" x1="405" x2="400" y1="396" y2="394"/>
<line fill="#000000" stroke="#000000" stroke-width="1" x1="396" x2="391" y1="392" y2="390"/>
<line fill="#000000" stroke="#000000" stroke-width="1" x1="387" x2="382" y1="388" y2="386"/>
<line fill="#000000" stroke="#000000" stroke-width="1" x1="378" x2="373" y1="384" y2="382"/>
<line fill="#000000" stroke="#000000" stroke-width="1" x1="381" x2="368" y1="377" y2="379"/>
<line fill="#000000" stroke="#000000" stroke-width="1" x1="376" x2="368" y1="390" y2="379"/>
<text font-family="Dialog" font-size="12" x="454" y="394">
&lt;&lt;extend&gt;&gt;</text>
<ellipse cx="529" cy="604" fill="#000000" rx="59.0" ry="22.0" stroke="#000000" stroke-width="1"/>
<ellipse cx="529" cy="604" fill="#ffffff" rx="58.0" ry="21.0" stroke="#ffffff" stroke-width="1"/>
<text font-family="Dialog" font-size="12" x="485" y="605">
Exercise Animal</text>
<ellipse cx="314" cy="118" fill="#000000" rx="68.0" ry="24.0" stroke="#000000" stroke-width="1"/>
<ellipse cx="314" cy="118" fill="#ffffff" rx="67.0" ry="23.0" stroke="#ffffff" stroke-width="1"/>
<text font-family="Dialog" font-size="12" x="260" y="119">
Put Animal to Sleep</text>
<polyline fill="none" points="54,250 275,137" stroke="#000000" stroke-width="1"/>
<line fill="#000000" stroke="#000000" stroke-width="1" x1="267" x2="275" y1="148" y2="137"/>
<line fill="#000000" stroke="#000000" stroke-width="1" x1="261" x2="275" y1="136" y2="137"/>
<ellipse cx="163" cy="578" fill="#000000" rx="85.0" ry="28.0" stroke="#000000" stroke-width="1"/>
<ellipse cx="163" cy="578" fill="#ffffff" rx="84.0" ry="27.0" stroke="#ffffff" stroke-width="1"/>
<text font-family="Dialog" font-size="12" x="91" y="579">
Inform Announcer of Event</text>
<polyline fill="none" points="52,317 497,585" stroke="#000000" stroke-width="1"/>
<line fill="#000000" stroke="#000000" stroke-width="1" x1="483" x2="497" y1="584" y2="585"/>
<line fill="#000000" stroke="#000000" stroke-width="1" x1="490" x2="497" y1="572" y2="585"/>
<polyline fill="none" points="52,317 151,550" stroke="#000000" stroke-width="1"/>
<line fill="#000000" stroke="#000000" stroke-width="1" x1="139" x2="151" y1="541" y2="550"/>
<line fill="#000000" stroke="#000000" stroke-width="1" x1="152" x2="151" y1="536" y2="550"/>
<ellipse cx="957" cy="640" fill="#000000" rx="79.0" ry="26.0" stroke="#000000" stroke-width="1"/>
<ellipse cx="957" cy="640" fill="#ffffff" rx="78.0" ry="25.0" stroke="#ffffff" stroke-width="1"/>
<text font-family="Dialog" font-size="12" x="893" y="641">
Exercise House Animal</text>
<line fill="#000000" stroke="#000000" stroke-width="1" x1="880" x2="876" y1="633" y2="633"/>
<line fill="#000000" stroke="#000000" stroke-width="1" x1="871" x2="866" y1="633" y2="632"/>
<line fill="#000000" stroke="#000000" stroke-width="1" x1="861" x2="856" y1="632" y2="631"/>
<line fill="#000000" stroke="#000000" stroke-width="1" x1="851" x2="846" y1="631" y2="631"/>
<line fill="#000000" stroke="#000000" stroke-width="1" x1="841" x2="836" y1="630" y2="630"/>
<line fill="#000000" stroke="#000000" stroke-width="1" x1="831" x2="826" y1="629" y2="629"/>
<line fill="#000000" stroke="#000000" stroke-width="1" x1="821" x2="816" y1="628" y2="628"/>
<line fill="#000000" stroke="#000000" stroke-width="1" x1="811" x2="806" y1="628" y2="627"/>
<line fill="#000000" stroke="#000000" stroke-width="1" x1="801" x2="796" y1="627" y2="626"/>
<line fill="#000000" stroke="#000000" stroke-width="1" x1="791" x2="786" y1="626" y2="625"/>
<line fill="#000000" stroke="#000000" stroke-width="1" x1="781" x2="776" y1="625" y2="625"/>
<line fill="#000000" stroke="#000000" stroke-width="1" x1="771" x2="766" y1="624" y2="624"/>
<line fill="#000000" stroke="#000000" stroke-width="1" x1="761" x2="756" y1="623" y2="623"/>
<line fill="#000000" stroke="#000000" stroke-width="1" x1="751" x2="746" y1="622" y2="622"/>
<line fill="#000000" stroke="#000000" stroke-width="1" x1="741" x2="736" y1="622" y2="621"/>
<line fill="#000000" stroke="#000000" stroke-width="1" x1="731" x2="726" y1="621" y2="620"/>
<line fill="#000000" stroke="#000000" stroke-width="1" x1="721" x2="716" y1="620" y2="620"/>
<line fill="#000000" stroke="#000000" stroke-width="1" x1="711" x2="706" y1="619" y2="619"/>
<line fill="#000000" stroke="#000000" stroke-width="1" x1="701" x2="696" y1="618" y2="618"/>
<line fill="#000000" stroke="#000000" stroke-width="1" x1="691" x2="686" y1="617" y2="617"/>
<line fill="#000000" stroke="#000000" stroke-width="1" x1="681" x2="676" y1="617" y2="616"/>
<line fill="#000000" stroke="#000000" stroke-width="1" x1="671" x2="666" y1="616" y2="615"/>
<line fill="#000000" stroke="#000000" stroke-width="1" x1="661" x2="656" y1="615" y2="614"/>
<line fill="#000000" stroke="#000000" stroke-width="1" x1="651" x2="646" y1="614" y2="614"/>
<line fill="#000000" stroke="#000000" stroke-width="1" x1="641" x2="636" y1="613" y2="613"/>
<line fill="#000000" stroke="#000000" stroke-width="1" x1="631" x2="626" y1="612" y2="612"/>
<line fill="#000000" stroke="#000000" stroke-width="1" x1="621" x2="616" y1="611" y2="611"/>
<line fill="#000000" stroke="#000000" stroke-width="1" x1="611" x2="606" y1="611" y2="610"/>
<line fill="#000000" stroke="#000000" stroke-width="1" x1="601" x2="596" y1="610" y2="609"/>
<line fill="#000000" stroke="#000000" stroke-width="1" x1="591" x2="586" y1="609" y2="608"/>
<line fill="#000000" stroke="#000000" stroke-width="1" x1="598" x2="586" y1="602" y2="608"/>
<line fill="#000000" stroke="#000000" stroke-width="1" x1="597" x2="586" y1="615" y2="608"/>
<text font-family="Dialog" font-size="12" x="704" y="594">
&lt;&lt;extend&gt;&gt;</text>
<ellipse cx="830" cy="885" fill="#000000" rx="104.0" ry="31.0" stroke="#000000" stroke-width="1"/>
<ellipse cx="830" cy="885" fill="#ffffff" rx="103.0" ry="30.0" stroke="#ffffff" stroke-width="1"/>
<text font-family="Dialog" font-size="12" x="740" y="886">
Exercise Forest or Jungle Animal</text>
<line fill="#000000" stroke="#000000" stroke-width="1" x1="798" x2="795" y1="855" y2="852"/>
<line fill="#000000" stroke="#000000" stroke-width="1" x1="791" x2="787" y1="849" y2="845"/>
<line fill="#000000" stroke="#000000" stroke-width="1" x1="784" x2="780" y1="842" y2="838"/>
<line fill="#000000" stroke="#000000" stroke-width="1" x1="776" x2="773" y1="835" y2="832"/>
<line fill="#000000" stroke="#000000" stroke-width="1" x1="769" x2="765" y1="828" y2="825"/>
<line fill="#000000" stroke="#000000" stroke-width="1" x1="762" x2="758" y1="821" y2="818"/>
<line fill="#000000" stroke="#000000" stroke-width="1" x1="754" x2="751" y1="814" y2="811"/>
<line fill="#000000" stroke="#000000" stroke-width="1" x1="747" x2="743" y1="808" y2="804"/>
<line fill="#000000" stroke="#000000" stroke-width="1" x1="740" x2="736" y1="801" y2="797"/>
<line fill="#000000" stroke="#000000" stroke-width="1" x1="732" x2="729" y1="794" y2="791"/>
<line fill="#000000" stroke="#000000" stroke-width="1" x1="725" x2="721" y1="787" y2="784"/>
<line fill="#000000" stroke="#000000" stroke-width="1" x1="718" x2="714" y1="780" y2="777"/>
<line fill="#000000" stroke="#000000" stroke-width="1" x1="710" x2="707" y1="773" y2="770"/>
<line fill="#000000" stroke="#000000" stroke-width="1" x1="703" x2="699" y1="767" y2="763"/>
<line fill="#000000" stroke="#000000" stroke-width="1" x1="696" x2="692" y1="760" y2="756"/>
<line fill="#000000" stroke="#000000" stroke-width="1" x1="688" x2="685" y1="753" y2="750"/>
<line fill="#000000" stroke="#000000" stroke-width="1" x1="681" x2="677" y1="746" y2="743"/>
<line fill="#000000" stroke="#000000" stroke-width="1" x1="674" x2="670" y1="739" y2="736"/>
<line fill="#000000" stroke="#000000" stroke-width="1" x1="666" x2="663" y1="732" y2="729"/>
<line fill="#000000" stroke="#000000" stroke-width="1" x1="659" x2="655" y1="726" y2="722"/>
<line fill="#000000" stroke="#000000" stroke-width="1" x1="652" x2="648" y1="719" y2="715"/>
<line fill="#000000" stroke="#000000" stroke-width="1" x1="644" x2="641" y1="712" y2="709"/>
<line fill="#000000" stroke="#000000" stroke-width="1" x1="637" x2="633" y1="705" y2="702"/>
<line fill="#000000" stroke="#000000" stroke-width="1" x1="630" x2="626" y1="698" y2="695"/>
<line fill="#000000" stroke="#000000" stroke-width="1" x1="622" x2="619" y1="691" y2="688"/>
<line fill="#000000" stroke="#000000" stroke-width="1" x1="615" x2="611" y1="685" y2="681"/>
<line fill="#000000" stroke="#000000" stroke-width="1" x1="608" x2="604" y1="678" y2="674"/>
<line fill="#000000" stroke="#000000" stroke-width="1" x1="600" x2="597" y1="671" y2="668"/>
<line fill="#000000" stroke="#000000" stroke-width="1" x1="593" x2="589" y1="664" y2="661"/>
<line fill="#000000" stroke="#000000" stroke-width="1" x1="586" x2="582" y1="657" y2="654"/>
<line fill="#000000" stroke="#000000" stroke-width="1" x1="578" x2="575" y1="650" y2="647"/>
<line fill="#000000" stroke="#000000" stroke-width="1" x1="571" x2="567" y1="644" y2="640"/>
<line fill="#000000" stroke="#000000" stroke-width="1" x1="564" x2="560" y1="637" y2="633"/>
<line fill="#000000" stroke="#000000" stroke-width="1" x1="556" x2="553" y1="630" y2="627"/>
<line fill="#000000" stroke="#000000" stroke-width="1" x1="563" x2="550" y1="627" y2="624"/>
<line fill="#000000" stroke="#000000" stroke-width="1" x1="554" x2="550" y1="637" y2="624"/>
<text font-family="Dialog" font-size="12" x="668" y="709">
&lt;&lt;extend&gt;&gt;</text>
<ellipse cx="909" cy="770" fill="#000000" rx="87.0" ry="28.0" stroke="#000000" stroke-width="1"/>
<ellipse cx="909" cy="770" fill="#ffffff" rx="86.0" ry="27.0" stroke="#ffffff" stroke-width="1"/>
<text font-family="Dialog" font-size="12" x="836" y="771">
Exercise Savannah Animal</text>
<line fill="#000000" stroke="#000000" stroke-width="1" x1="857" x2="853" y1="747" y2="745"/>
<line fill="#000000" stroke="#000000" stroke-width="1" x1="848" x2="844" y1="743" y2="741"/>
<line fill="#000000" stroke="#000000" stroke-width="1" x1="839" x2="835" y1="739" y2="737"/>
<line fill="#000000" stroke="#000000" stroke-width="1" x1="830" x2="825" y1="735" y2="733"/>
<line fill="#000000" stroke="#000000" stroke-width="1" x1="821" x2="816" y1="731" y2="729"/>
<line fill="#000000" stroke="#000000" stroke-width="1" x1="812" x2="807" y1="727" y2="725"/>
<line fill="#000000" stroke="#000000" stroke-width="1" x1="802" x2="798" y1="723" y2="721"/>
<line fill="#000000" stroke="#000000" stroke-width="1" x1="793" x2="789" y1="719" y2="717"/>
<line fill="#000000" stroke="#000000" stroke-width="1" x1="784" x2="779" y1="715" y2="713"/>
<line fill="#000000" stroke="#000000" stroke-width="1" x1="775" x2="770" y1="711" y2="709"/>
<line fill="#000000" stroke="#000000" stroke-width="1" x1="766" x2="761" y1="707" y2="705"/>
<line fill="#000000" stroke="#000000" stroke-width="1" x1="757" x2="752" y1="703" y2="701"/>
<line fill="#000000" stroke="#000000" stroke-width="1" x1="747" x2="743" y1="699" y2="697"/>
<line fill="#000000" stroke="#000000" stroke-width="1" x1="738" x2="734" y1="695" y2="693"/>
<line fill="#000000" stroke="#000000" stroke-width="1" x1="729" x2="724" y1="691" y2="689"/>
<line fill="#000000" stroke="#000000" stroke-width="1" x1="720" x2="715" y1="687" y2="685"/>
<line fill="#000000" stroke="#000000" stroke-width="1" x1="711" x2="706" y1="683" y2="681"/>
<line fill="#000000" stroke="#000000" stroke-width="1" x1="701" x2="697" y1="679" y2="677"/>
<line fill="#000000" stroke="#000000" stroke-width="1" x1="692" x2="688" y1="675" y2="673"/>
<line fill="#000000" stroke="#000000" stroke-width="1" x1="683" x2="679" y1="671" y2="669"/>
<line fill="#000000" stroke="#000000" stroke-width="1" x1="674" x2="669" y1="667" y2="665"/>
<line fill="#000000" stroke="#000000" stroke-width="1" x1="665" x2="660" y1="663" y2="661"/>
<line fill="#000000" stroke="#000000" stroke-width="1" x1="656" x2="651" y1="659" y2="657"/>
<line fill="#000000" stroke="#000000" stroke-width="1" x1="646" x2="642" y1="655" y2="653"/>
<line fill="#000000" stroke="#000000" stroke-width="1" x1="637" x2="633" y1="651" y2="649"/>
<line fill="#000000" stroke="#000000" stroke-width="1" x1="628" x2="623" y1="647" y2="645"/>
<line fill="#000000" stroke="#000000" stroke-width="1" x1="619" x2="614" y1="643" y2="641"/>
<line fill="#000000" stroke="#000000" stroke-width="1" x1="610" x2="605" y1="639" y2="637"/>
<line fill="#000000" stroke="#000000" stroke-width="1" x1="601" x2="596" y1="635" y2="633"/>
<line fill="#000000" stroke="#000000" stroke-width="1" x1="591" x2="587" y1="631" y2="629"/>
<line fill="#000000" stroke="#000000" stroke-width="1" x1="582" x2="578" y1="627" y2="625"/>
<line fill="#000000" stroke="#000000" stroke-width="1" x1="573" x2="568" y1="623" y2="621"/>
<line fill="#000000" stroke="#000000" stroke-width="1" x1="580" x2="567" y1="618" y2="620"/>
<line fill="#000000" stroke="#000000" stroke-width="1" x1="575" x2="567" y1="631" y2="620"/>
<text font-family="Dialog" font-size="12" x="692" y="651">
&lt;&lt;extend&gt;&gt;</text>
<ellipse cx="1039" cy="412" fill="#000000" rx="137.0" ry="38.0" stroke="#000000" stroke-width="1"/>
<ellipse cx="1039" cy="412" fill="#ffffff" rx="136.0" ry="37.0" stroke="#ffffff" stroke-width="1"/>
<text font-family="Dialog" font-size="12" x="914" y="413">
Determine Relevant Information about Animal</text>
<line fill="#000000" stroke="#000000" stroke-width="1" x1="387" x2="391" y1="366" y2="366"/>
<line fill="#000000" stroke="#000000" stroke-width="1" x1="396" x2="401" y1="366" y2="367"/>
<line fill="#000000" stroke="#000000" stroke-width="1" x1="406" x2="411" y1="367" y2="367"/>
<line fill="#000000" stroke="#000000" stroke-width="1" x1="416" x2="421" y1="368" y2="368"/>
<line fill="#000000" stroke="#000000" stroke-width="1" x1="426" x2="431" y1="368" y2="369"/>
<line fill="#000000" stroke="#000000" stroke-width="1" x1="436" x2="441" y1="369" y2="369"/>
<line fill="#000000" stroke="#000000" stroke-width="1" x1="446" x2="451" y1="370" y2="370"/>
<line fill="#000000" stroke="#000000" stroke-width="1" x1="456" x2="461" y1="370" y2="371"/>
<line fill="#000000" stroke="#000000" stroke-width="1" x1="466" x2="471" y1="371" y2="371"/>
<line fill="#000000" stroke="#000000" stroke-width="1" x1="476" x2="481" y1="372" y2="372"/>
<line fill="#000000" stroke="#000000" stroke-width="1" x1="486" x2="491" y1="372" y2="373"/>
<line fill="#000000" stroke="#000000" stroke-width="1" x1="496" x2="501" y1="373" y2="373"/>
<line fill="#000000" stroke="#000000" stroke-width="1" x1="506" x2="511" y1="374" y2="374"/>
<line fill="#000000" stroke="#000000" stroke-width="1" x1="516" x2="521" y1="375" y2="375"/>
<line fill="#000000" stroke="#000000" stroke-width="1" x1="526" x2="531" y1="375" y2="376"/>
<line fill="#000000" stroke="#000000" stroke-width="1" x1="536" x2="541" y1="376" y2="376"/>
<line fill="#000000" stroke="#000000" stroke-width="1" x1="546" x2="551" y1="377" y2="377"/>
<line fill="#000000" stroke="#000000" stroke-width="1" x1="556" x2="561" y1="377" y2="378"/>
<line fill="#000000" stroke="#000000" stroke-width="1" x1="566" x2="571" y1="378" y2="378"/>
<line fill="#000000" stroke="#000000" stroke-width="1" x1="576" x2="581" y1="379" y2="379"/>
<line fill="#000000" stroke="#000000" stroke-width="1" x1="586" x2="591" y1="379" y2="380"/>
<line fill="#000000" stroke="#000000" stroke-width="1" x1="596" x2="601" y1="380" y2="380"/>
<line fill="#000000" stroke="#000000" stroke-width="1" x1="606" x2="611" y1="381" y2="381"/>
<line fill="#000000" stroke="#000000" stroke-width="1" x1="616" x2="621" y1="381" y2="382"/>
<line fill="#000000" stroke="#000000" stroke-width="1" x1="626" x2="631" y1="382" y2="382"/>
<line fill="#000000" stroke="#000000" stroke-width="1" x1="636" x2="641" y1="383" y2="383"/>
<line fill="#000000" stroke="#000000" stroke-width="1" x1="646" x2="651" y1="384" y2="384"/>
<line fill="#000000" stroke="#000000" stroke-width="1" x1="656" x2="661" y1="384" y2="385"/>
<line fill="#000000" stroke="#000000" stroke-width="1" x1="666" x2="671" y1="385" y2="385"/>
<line fill="#000000" stroke="#000000" stroke-width="1" x1="676" x2="681" y1="386" y2="386"/>
<line fill="#000000" stroke="#000000" stroke-width="1" x1="686" x2="691" y1="386" y2="387"/>
<line fill="#000000" stroke="#000000" stroke-width="1" x1="696" x2="701" y1="387" y2="387"/>
<line fill="#000000" stroke="#000000" stroke-width="1" x1="706" x2="711" y1="388" y2="388"/>
<line fill="#000000" stroke="#000000" stroke-width="1" x1="716" x2="721" y1="388" y2="389"/>
<line fill="#000000" stroke="#000000" stroke-width="1" x1="726" x2="731" y1="389" y2="389"/>
<line fill="#000000" stroke="#000000" stroke-width="1" x1="736" x2="741" y1="390" y2="390"/>
<line fill="#000000" stroke="#000000" stroke-width="1" x1="746" x2="751" y1="390" y2="391"/>
<line fill="#000000" stroke="#000000" stroke-width="1" x1="756" x2="761" y1="391" y2="391"/>
<line fill="#000000" stroke="#000000" stroke-width="1" x1="766" x2="771" y1="392" y2="392"/>
<line fill="#000000" stroke="#000000" stroke-width="1" x1="776" x2="781" y1="393" y2="393"/>
<line fill="#000000" stroke="#000000" stroke-width="1" x1="786" x2="791" y1="393" y2="394"/>
<line fill="#000000" stroke="#000000" stroke-width="1" x1="796" x2="801" y1="394" y2="394"/>
<line fill="#000000" stroke="#000000" stroke-width="1" x1="806" x2="811" y1="395" y2="395"/>
<line fill="#000000" stroke="#000000" stroke-width="1" x1="816" x2="821" y1="395" y2="396"/>
<line fill="#000000" stroke="#000000" stroke-width="1" x1="826" x2="831" y1="396" y2="396"/>
<line fill="#000000" stroke="#000000" stroke-width="1" x1="836" x2="841" y1="397" y2="397"/>
<line fill="#000000" stroke="#000000" stroke-width="1" x1="846" x2="851" y1="397" y2="398"/>
<line fill="#000000" stroke="#000000" stroke-width="1" x1="856" x2="861" y1="398" y2="398"/>
<line fill="#000000" stroke="#000000" stroke-width="1" x1="866" x2="871" y1="399" y2="399"/>
<line fill="#000000" stroke="#000000" stroke-width="1" x1="876" x2="881" y1="399" y2="400"/>
<line fill="#000000" stroke="#000000" stroke-width="1" x1="886" x2="891" y1="400" y2="400"/>
<line fill="#000000" stroke="#000000" stroke-width="1" x1="896" x2="901" y1="401" y2="401"/>
<line fill="#000000" stroke="#000000" stroke-width="1" x1="893" x2="906" y1="408" y2="402"/>
<line fill="#000000" stroke="#000000" stroke-width="1" x1="894" x2="906" y1="394" y2="402"/>
<text font-family="Dialog" font-size="12" x="613" y="376">
&lt;&lt;include&gt;&gt;</text>
<line fill="#000000" stroke="#000000" stroke-width="1" x1="570" x2="574" y1="588" y2="587"/>
<line fill="#000000" stroke="#000000" stroke-width="1" x1="579" x2="584" y1="585" y2="583"/>
<line fill="#000000" stroke="#000000" stroke-width="1" x1="588" x2="593" y1="581" y2="580"/>
<line fill="#000000" stroke="#000000" stroke-width="1" x1="598" x2="602" y1="578" y2="576"/>
<line fill="#000000" stroke="#000000" stroke-width="1" x1="607" x2="612" y1="574" y2="573"/>
<line fill="#000000" stroke="#000000" stroke-width="1" x1="616" x2="621" y1="571" y2="569"/>
<line fill="#000000" stroke="#000000" stroke-width="1" x1="626" x2="630" y1="567" y2="566"/>
<line fill="#000000" stroke="#000000" stroke-width="1" x1="635" x2="640" y1="564" y2="562"/>
<line fill="#000000" stroke="#000000" stroke-width="1" x1="644" x2="649" y1="560" y2="558"/>
<line fill="#000000" stroke="#000000" stroke-width="1" x1="654" x2="659" y1="557" y2="555"/>
<line fill="#000000" stroke="#000000" stroke-width="1" x1="663" x2="668" y1="553" y2="551"/>
<line fill="#000000" stroke="#000000" stroke-width="1" x1="673" x2="677" y1="550" y2="548"/>
<line fill="#000000" stroke="#000000" stroke-width="1" x1="682" x2="687" y1="546" y2="544"/>
<line fill="#000000" stroke="#000000" stroke-width="1" x1="691" x2="696" y1="543" y2="541"/>
<line fill="#000000" stroke="#000000" stroke-width="1" x1="701" x2="705" y1="539" y2="537"/>
<line fill="#000000" stroke="#000000" stroke-width="1" x1="710" x2="715" y1="535" y2="534"/>
<line fill="#000000" stroke="#000000" stroke-width="1" x1="719" x2="724" y1="532" y2="530"/>
<line fill="#000000" stroke="#000000" stroke-width="1" x1="729" x2="733" y1="528" y2="527"/>
<line fill="#000000" stroke="#000000" stroke-width="1" x1="738" x2="743" y1="525" y2="523"/>
<line fill="#000000" stroke="#000000" stroke-width="1" x1="748" x2="752" y1="521" y2="520"/>
<line fill="#000000" stroke="#000000" stroke-width="1" x1="757" x2="762" y1="518" y2="516"/>
<line fill="#000000" stroke="#000000" stroke-width="1" x1="766" x2="771" y1="514" y2="512"/>
<line fill="#000000" stroke="#000000" stroke-width="1" x1="776" x2="780" y1="511" y2="509"/>
<line fill="#000000" stroke="#000000" stroke-width="1" x1="785" x2="790" y1="507" y2="505"/>
<line fill="#000000" stroke="#000000" stroke-width="1" x1="794" x2="799" y1="504" y2="502"/>
<line fill="#000000" stroke="#000000" stroke-width="1" x1="804" x2="808" y1="500" y2="498"/>
<line fill="#000000" stroke="#000000" stroke-width="1" x1="813" x2="818" y1="497" y2="495"/>
<line fill="#000000" stroke="#000000" stroke-width="1" x1="823" x2="827" y1="493" y2="491"/>
<line fill="#000000" stroke="#000000" stroke-width="1" x1="832" x2="837" y1="490" y2="488"/>
<line fill="#000000" stroke="#000000" stroke-width="1" x1="841" x2="846" y1="486" y2="484"/>
<line fill="#000000" stroke="#000000" stroke-width="1" x1="851" x2="855" y1="482" y2="481"/>
<line fill="#000000" stroke="#000000" stroke-width="1" x1="860" x2="865" y1="479" y2="477"/>
<line fill="#000000" stroke="#000000" stroke-width="1" x1="869" x2="874" y1="475" y2="474"/>
<line fill="#000000" stroke="#000000" stroke-width="1" x1="879" x2="883" y1="472" y2="470"/>
<line fill="#000000" stroke="#000000" stroke-width="1" x1="888" x2="893" y1="468" y2="467"/>
<line fill="#000000" stroke="#000000" stroke-width="1" x1="897" x2="902" y1="465" y2="463"/>
<line fill="#000000" stroke="#000000" stroke-width="1" x1="907" x2="912" y1="461" y2="459"/>
<line fill="#000000" stroke="#000000" stroke-width="1" x1="916" x2="921" y1="458" y2="456"/>
<line fill="#000000" stroke="#000000" stroke-width="1" x1="926" x2="930" y1="454" y2="452"/>
<line fill="#000000" stroke="#000000" stroke-width="1" x1="935" x2="940" y1="451" y2="449"/>
<line fill="#000000" stroke="#000000" stroke-width="1" x1="944" x2="949" y1="447" y2="445"/>
<line fill="#000000" stroke="#000000" stroke-width="1" x1="954" x2="957" y1="444" y2="442"/>
<line fill="#000000" stroke="#000000" stroke-width="1" x1="948" x2="957" y1="452" y2="442"/>
<line fill="#000000" stroke="#000000" stroke-width="1" x1="943" x2="957" y1="439" y2="442"/>
<text font-family="Dialog" font-size="12" x="721" y="499">
&lt;&lt;include&gt;&gt;</text>
<ellipse cx="632" cy="961" fill="#000000" rx="82.0" ry="27.0" stroke="#000000" stroke-width="1"/>
<ellipse cx="632" cy="961" fill="#ffffff" rx="81.0" ry="26.0" stroke="#ffffff" stroke-width="1"/>
<text font-family="Dialog" font-size="12" x="564" y="962">
Exercise Wetland Animal</text>
<line fill="#000000" stroke="#000000" stroke-width="1" x1="624" x2="623" y1="934" y2="930"/>
<line fill="#000000" stroke="#000000" stroke-width="1" x1="622" x2="620" y1="925" y2="920"/>
<line fill="#000000" stroke="#000000" stroke-width="1" x1="619" x2="618" y1="915" y2="910"/>
<line fill="#000000" stroke="#000000" stroke-width="1" x1="616" x2="615" y1="906" y2="901"/>
<line fill="#000000" stroke="#000000" stroke-width="1" x1="613" x2="612" y1="896" y2="891"/>
<line fill="#000000" stroke="#000000" stroke-width="1" x1="611" x2="609" y1="886" y2="882"/>
<line fill="#000000" stroke="#000000" stroke-width="1" x1="608" x2="606" y1="877" y2="872"/>
<line fill="#000000" stroke="#000000" stroke-width="1" x1="605" x2="604" y1="867" y2="862"/>
<line fill="#000000" stroke="#000000" stroke-width="1" x1="602" x2="601" y1="857" y2="853"/>
<line fill="#000000" stroke="#000000" stroke-width="1" x1="600" x2="598" y1="848" y2="843"/>
<line fill="#000000" stroke="#000000" stroke-width="1" x1="597" x2="595" y1="838" y2="833"/>
<line fill="#000000" stroke="#000000" stroke-width="1" x1="594" x2="593" y1="829" y2="824"/>
<line fill="#000000" stroke="#000000" stroke-width="1" x1="591" x2="590" y1="819" y2="814"/>
<line fill="#000000" stroke="#000000" stroke-width="1" x1="588" x2="587" y1="809" y2="805"/>
<line fill="#000000" stroke="#000000" stroke-width="1" x1="586" x2="584" y1="800" y2="795"/>
<line fill="#000000" stroke="#000000" stroke-width="1" x1="583" x2="582" y1="790" y2="785"/>
<line fill="#000000" stroke="#000000" stroke-width="1" x1="580" x2="579" y1="780" y2="776"/>
<line fill="#000000" stroke="#000000" stroke-width="1" x1="577" x2="576" y1="771" y2="766"/>
<line fill="#000000" stroke="#000000" stroke-width="1" x1="575" x2="573" y1="761" y2="756"/>
<line fill="#000000" stroke="#000000" stroke-width="1" x1="572" x2="570" y1="752" y2="747"/>
<line fill="#000000" stroke="#000000" stroke-width="1" x1="569" x2="568" y1="742" y2="737"/>
<line fill="#000000" stroke="#000000" stroke-width="1" x1="566" x2="565" y1="732" y2="728"/>
<line fill="#000000" stroke="#000000" stroke-width="1" x1="564" x2="562" y1="723" y2="718"/>
<line fill="#000000" stroke="#000000" stroke-width="1" x1="561" x2="559" y1="713" y2="708"/>
<line fill="#000000" stroke="#000000" stroke-width="1" x1="558" x2="557" y1="703" y2="699"/>
<line fill="#000000" stroke="#000000" stroke-width="1" x1="555" x2="554" y1="694" y2="689"/>
<line fill="#000000" stroke="#000000" stroke-width="1" x1="552" x2="551" y1="684" y2="679"/>
<line fill="#000000" stroke="#000000" stroke-width="1" x1="550" x2="548" y1="675" y2="670"/>
<line fill="#000000" stroke="#000000" stroke-width="1" x1="547" x2="545" y1="665" y2="660"/>
<line fill="#000000" stroke="#000000" stroke-width="1" x1="544" x2="543" y1="655" y2="651"/>
<line fill="#000000" stroke="#000000" stroke-width="1" x1="541" x2="540" y1="646" y2="641"/>
<line fill="#000000" stroke="#000000" stroke-width="1" x1="539" x2="537" y1="636" y2="631"/>
<line fill="#000000" stroke="#000000" stroke-width="1" x1="536" x2="535" y1="626" y2="625"/>
<line fill="#000000" stroke="#000000" stroke-width="1" x1="545" x2="535" y1="634" y2="625"/>
<line fill="#000000" stroke="#000000" stroke-width="1" x1="531" x2="535" y1="638" y2="625"/>
<text font-family="Dialog" font-size="12" x="584" y="766">
&lt;&lt;extend&gt;&gt;</text>
<ellipse cx="272" cy="787" fill="#000000" rx="130.0" ry="37.0" stroke="#000000" stroke-width="1"/>
<ellipse cx="272" cy="787" fill="#ffffff" rx="129.0" ry="36.0" stroke="#ffffff" stroke-width="1"/>
<text font-family="Dialog" font-size="12" x="154" y="788">
Determine Which Event is going to Happen</text>
<line fill="#000000" stroke="#000000" stroke-width="1" x1="177" x2="179" y1="605" y2="609"/>
<line fill="#000000" stroke="#000000" stroke-width="1" x1="181" x2="183" y1="613" y2="618"/>
<line fill="#000000" stroke="#000000" stroke-width="1" x1="186" x2="188" y1="622" y2="627"/>
<line fill="#000000" stroke="#000000" stroke-width="1" x1="190" x2="193" y1="631" y2="636"/>
<line fill="#000000" stroke="#000000" stroke-width="1" x1="195" x2="197" y1="640" y2="645"/>
<line fill="#000000" stroke="#000000" stroke-width="1" x1="200" x2="202" y1="649" y2="653"/>
<line fill="#000000" stroke="#000000" stroke-width="1" x1="204" x2="206" y1="658" y2="662"/>
<line fill="#000000" stroke="#000000" stroke-width="1" x1="209" x2="211" y1="667" y2="671"/>
<line fill="#000000" stroke="#000000" stroke-width="1" x1="213" x2="216" y1="676" y2="680"/>
<line fill="#000000" stroke="#000000" stroke-width="1" x1="218" x2="220" y1="685" y2="689"/>
<line fill="#000000" stroke="#000000" stroke-width="1" x1="223" x2="225" y1="693" y2="698"/>
<line fill="#000000" stroke="#000000" stroke-width="1" x1="227" x2="229" y1="702" y2="707"/>
<line fill="#000000" stroke="#000000" stroke-width="1" x1="232" x2="234" y1="711" y2="716"/>
<line fill="#000000" stroke="#000000" stroke-width="1" x1="236" x2="239" y1="720" y2="725"/>
<line fill="#000000" stroke="#000000" stroke-width="1" x1="241" x2="243" y1="729" y2="733"/>
<line fill="#000000" stroke="#000000" stroke-width="1" x1="246" x2="248" y1="738" y2="742"/>
<line fill="#000000" stroke="#000000" stroke-width="1" x1="250" x2="252" y1="747" y2="750"/>
<line fill="#000000" stroke="#000000" stroke-width="1" x1="240" x2="252" y1="742" y2="750"/>
<line fill="#000000" stroke="#000000" stroke-width="1" x1="252" x2="252" y1="736" y2="750"/>
<text font-family="Dialog" font-size="12" x="212" y="666">
&lt;&lt;include&gt;&gt;</text>
</svg>
